<?xml version="1.0" encoding="UTF-8" standalone="no"?>
<!DOCTYPE svg PUBLIC "-//W3C//DTD SVG 20010904//EN"
              "http://www.w3.org/TR/2001/REC-SVG-20010904/DTD/svg10.dtd">

<svg xmlns="http://www.w3.org/2000/svg"
     width="42.3334mm" height="42.3334mm"
     viewBox="0 0 500 500">
  <path id="Sélection"
        fill="none" stroke="black" stroke-width="1"
        d="M 232.00,26.21
           C 232.00,26.21 263.00,26.21 263.00,26.21
             263.00,26.21 280.00,27.72 280.00,27.72
             319.18,32.82 357.07,48.74 388.00,73.45
             397.65,81.15 409.10,92.38 416.80,102.00
             419.42,105.28 424.27,110.47 423.47,114.99
             422.63,119.68 414.78,124.14 411.00,126.67
             411.00,126.67 374.00,152.00 374.00,152.00
             369.72,154.85 362.34,161.00 357.00,159.22
             353.55,158.08 348.66,152.66 346.00,150.00
             337.89,141.90 337.12,141.17 328.00,134.23
             308.83,119.66 281.26,109.04 257.00,109.00
             240.79,108.97 229.87,109.00 214.00,114.03
             203.22,117.44 191.44,122.87 182.00,129.08
             151.29,149.26 133.95,181.70 127.00,217.00
             125.50,224.64 124.01,234.26 124.00,242.00
             124.00,242.00 124.00,256.00 124.00,256.00
             124.00,256.00 124.91,266.00 124.91,266.00
             129.97,335.23 183.91,391.83 255.00,391.00
             263.42,390.90 277.93,388.48 286.00,385.98
             290.17,384.68 299.80,380.37 303.00,380.29
             307.16,380.17 315.42,385.05 320.00,386.77
             329.83,390.48 337.45,392.12 348.00,392.00
             382.12,391.61 411.19,364.84 417.39,332.00
             418.26,327.38 419.14,322.72 418.96,318.00
             418.24,299.42 409.69,279.81 395.99,267.17
             379.44,251.91 363.61,248.75 342.00,249.00
             333.01,249.11 320.80,252.48 313.00,256.87
             303.37,262.30 293.92,270.83 287.75,280.00
             285.01,284.08 280.02,296.07 276.79,297.98
             273.99,299.63 260.01,299.03 256.00,299.00
             246.24,298.93 246.01,295.84 246.00,287.00
             246.00,287.00 246.00,230.00 246.00,230.00
             246.05,220.39 247.59,219.02 257.00,219.00
             257.00,219.00 415.00,219.00 415.00,219.00
             415.00,219.00 449.00,219.00 449.00,219.00
             453.13,219.00 459.53,218.17 462.57,221.31
             465.63,224.47 465.99,236.47 466.00,241.00
             466.00,241.00 466.00,264.00 466.00,264.00
             466.00,264.00 465.09,274.00 465.09,274.00
             462.36,313.88 455.53,346.23 434.55,381.00
             407.13,426.45 359.89,457.50 309.00,470.52
             289.67,475.47 267.90,477.23 248.00,477.00
             248.00,477.00 238.00,476.09 238.00,476.09
             219.67,474.75 201.48,471.47 184.00,465.67
             150.75,454.62 123.31,438.32 98.09,413.83
             37.04,354.55 18.09,262.36 41.58,182.00
             45.37,169.01 50.07,156.07 56.26,144.00
             83.78,90.31 133.50,50.85 191.00,33.72
             207.56,28.79 215.86,28.73 232.00,26.21 Z
           M 341.10,265.74
           C 352.45,262.92 353.99,271.04 354.00,280.00
             354.00,280.00 354.00,310.00 354.00,310.00
             354.04,311.92 353.99,313.97 355.02,315.67
             356.53,318.16 360.47,319.93 363.00,321.25
             363.00,321.25 381.00,330.78 381.00,330.78
             385.30,333.07 390.12,335.71 390.85,341.00
             391.66,346.94 386.97,352.08 381.00,351.52
             381.00,351.52 349.00,336.47 349.00,336.47
             344.46,334.74 339.08,335.05 335.75,331.44
             327.93,324.09 334.92,313.65 335.75,310.96
             336.03,309.16 335.99,306.87 335.75,305.00
             335.75,305.00 335.75,277.00 335.75,277.00
             336.07,271.68 336.30,268.71 341.10,265.74 Z" />
</svg>
