<?xml version="1.0" encoding="UTF-8" standalone="no"?>
<!DOCTYPE svg PUBLIC "-//W3C//DTD SVG 20010904//EN"
              "http://www.w3.org/TR/2001/REC-SVG-20010904/DTD/svg10.dtd">

<svg xmlns="http://www.w3.org/2000/svg"
     width="5.4in" height="1.66667in"
     viewBox="0 0 1620 500">
  <path id="Sélection"
        fill="none" stroke="black" stroke-width="1"
        d="M 44.00,195.00
           C 44.63,194.34 45.17,194.26 45.91,192.78
             45.91,192.78 48.55,175.00 48.55,175.00
             49.29,169.12 52.53,159.00 54.27,153.04
             54.27,153.04 55.87,145.91 55.87,145.91
             55.87,145.91 61.14,133.00 61.14,133.00
             69.75,112.18 78.89,98.24 93.44,81.00
             102.85,69.85 114.13,60.36 126.00,51.97
             154.63,31.72 186.02,19.75 221.00,16.76
             221.00,16.76 231.00,16.76 231.00,16.76
             231.00,16.76 243.00,16.76 243.00,16.76
             243.00,16.76 252.00,16.76 252.00,16.76
             280.70,19.35 310.24,28.36 335.00,43.27
             350.78,52.77 358.57,59.23 371.50,72.12
             376.27,76.88 381.92,82.25 385.44,88.00
             390.25,95.87 385.15,98.55 379.00,102.67
             379.00,102.67 346.00,125.57 346.00,125.57
             342.63,127.98 334.02,134.38 330.00,133.30
             326.81,132.44 321.49,126.48 319.00,124.00
             313.52,118.54 307.37,113.39 301.00,108.97
             278.19,93.14 257.23,88.69 230.00,89.00
             223.57,89.08 217.24,90.52 211.00,91.95
             168.48,101.66 136.32,138.19 129.46,181.00
             126.92,196.83 125.97,197.02 126.00,214.00
             126.01,217.97 125.56,219.69 128.00,223.00
             125.80,235.33 131.19,252.56 135.94,264.00
             150.08,298.10 178.46,324.46 215.01,331.91
             223.80,333.70 229.86,335.10 239.00,335.00
             245.09,334.93 262.27,332.25 268.00,330.49
             272.49,329.11 278.64,325.41 283.00,325.55
             287.26,325.68 290.89,328.88 295.00,330.45
             301.39,332.88 311.20,335.70 318.00,335.96
             324.97,336.23 333.41,334.25 339.99,331.96
             359.97,325.01 373.54,311.20 380.29,291.00
             381.71,286.74 381.60,283.22 382.42,279.00
             382.42,279.00 383.59,274.00 383.59,274.00
             383.94,271.26 382.36,263.40 381.00,261.00
             381.68,253.27 375.95,243.26 371.65,237.00
             354.02,211.36 320.66,204.40 293.00,216.96
             284.68,220.74 274.85,229.42 269.75,237.00
             266.80,241.38 262.77,251.83 258.90,253.98
             256.70,255.20 253.47,255.00 251.00,255.00
             245.69,255.01 233.89,257.03 232.95,249.98
             232.95,249.98 232.95,232.00 232.95,232.00
             232.95,232.00 232.95,194.00 232.95,194.00
             233.10,187.16 233.82,185.14 241.00,185.00
             241.00,185.00 291.00,185.00 291.00,185.00
             291.00,185.00 412.00,185.00 412.00,185.00
             414.80,185.01 418.41,184.71 420.69,186.60
             422.79,188.34 423.65,192.40 424.25,195.00
             424.25,195.00 425.00,224.00 425.00,224.00
             424.90,231.00 423.55,231.26 423.50,235.00
             423.50,235.00 423.50,241.00 423.50,241.00
             423.05,252.12 420.56,263.23 417.87,274.00
             417.87,274.00 414.91,287.00 414.91,287.00
             401.76,327.70 375.05,362.12 338.00,383.80
             322.14,393.09 307.27,398.14 290.00,403.66
             290.00,403.66 269.00,409.00 269.00,409.00
             265.54,408.49 264.98,408.01 262.00,410.06
             262.00,410.06 248.00,410.06 248.00,410.06
             248.00,410.06 228.00,411.00 228.00,411.00
             225.02,408.84 215.71,408.35 212.00,409.00
             208.66,406.79 204.89,407.07 201.00,406.30
             201.00,406.30 182.00,401.12 182.00,401.12
             161.65,394.89 147.75,388.51 130.00,376.54
             111.50,364.06 97.12,349.94 83.88,332.00
             83.88,332.00 73.01,316.00 73.01,316.00
             70.12,311.06 69.41,307.89 65.00,304.00
             65.00,304.00 56.01,279.00 56.01,279.00
             56.01,279.00 48.86,250.80 48.86,250.80
             48.86,250.80 46.45,231.22 46.45,231.22
             46.45,231.22 45.00,229.00 45.00,229.00
             46.57,222.54 46.00,215.62 46.00,209.00
             46.00,203.50 46.75,199.94 44.00,195.00 Z
           M 645.00,339.00
           C 645.00,339.00 645.00,387.00 645.00,387.00
             645.00,389.06 645.26,392.62 644.01,394.30
             642.78,395.95 638.93,397.21 637.00,398.01
             637.00,398.01 622.00,403.66 622.00,403.66
             594.12,412.56 573.59,412.33 545.00,412.00
             537.19,411.90 523.69,409.74 516.00,407.87
             486.58,400.72 462.11,386.46 447.31,359.00
             440.91,347.13 436.45,330.43 435.04,317.00
             435.04,317.00 435.04,308.00 435.04,308.00
             435.04,308.00 434.08,300.00 434.08,300.00
             434.08,300.00 435.04,292.00 435.04,292.00
             435.04,292.00 435.04,283.00 435.04,283.00
             437.47,258.90 446.43,234.88 463.09,217.00
             481.95,196.75 511.44,185.04 539.00,185.00
             539.00,185.00 562.00,185.00 562.00,185.00
             580.21,185.22 604.28,193.12 618.00,205.18
             650.50,233.74 649.00,272.69 649.00,312.00
             649.00,312.00 502.00,312.00 502.00,312.00
             505.28,323.43 503.72,329.74 511.79,341.00
             530.86,367.63 577.45,367.49 605.00,356.14
             612.02,353.25 617.46,350.74 624.00,346.80
             627.03,344.97 633.14,340.65 636.00,339.70
             638.64,338.82 642.20,339.00 645.00,339.00 Z
           M 909.00,247.00
           C 909.00,247.00 909.00,203.00 909.00,203.00
             909.00,201.03 908.74,197.31 909.99,195.73
             911.45,193.90 918.54,192.73 921.00,192.21
             921.00,192.21 951.00,186.87 951.00,186.87
             976.82,183.28 1019.26,183.60 1044.00,191.67
             1056.09,195.61 1068.22,201.20 1076.70,211.00
             1094.57,231.64 1093.00,255.66 1093.00,281.00
             1093.00,281.00 1093.00,406.00 1093.00,406.00
             1093.00,406.00 1025.00,406.00 1025.00,406.00
             1025.00,406.00 1025.00,385.00 1025.00,385.00
             1010.66,398.18 988.17,412.76 968.00,413.00
             968.00,413.00 951.00,413.00 951.00,413.00
             943.58,412.91 935.77,410.96 929.00,407.96
             885.26,388.62 879.92,325.06 908.09,296.04
             926.42,277.15 956.07,271.97 981.00,268.72
             995.93,266.77 1010.94,265.00 1026.00,265.00
             1025.23,259.21 1024.47,252.96 1021.15,248.00
             1015.31,239.28 1005.82,236.09 996.00,234.26
             976.67,230.66 956.55,233.42 938.00,239.34
             926.75,242.94 921.08,246.99 909.00,247.00 Z
           M 1444.00,185.14
           C 1444.00,185.14 1463.00,185.14 1463.00,185.14
             1463.00,185.14 1473.00,185.14 1473.00,185.14
             1495.79,185.04 1521.94,193.94 1539.00,209.17
             1563.17,230.75 1573.95,263.15 1574.00,295.00
             1574.06,332.21 1566.21,366.78 1536.00,391.54
             1519.79,404.82 1493.88,412.97 1473.00,413.00
             1473.00,413.00 1450.00,413.00 1450.00,413.00
             1444.50,412.93 1437.44,411.69 1432.00,410.60
             1398.79,403.92 1373.26,383.63 1360.45,352.00
             1356.33,341.83 1353.21,327.94 1352.04,317.00
             1352.04,317.00 1352.04,307.00 1352.04,307.00
             1352.04,307.00 1351.08,299.00 1351.08,299.00
             1351.08,299.00 1351.96,290.00 1351.96,290.00
             1352.91,268.30 1357.12,247.58 1369.09,229.00
             1387.31,200.73 1412.12,190.24 1444.00,185.14 Z
           M 656.00,192.00
           C 656.00,192.00 719.00,192.00 719.00,192.00
             719.00,192.00 726.49,193.02 726.49,193.02
             726.49,193.02 730.69,202.00 730.69,202.00
             730.69,202.00 738.00,223.00 738.00,223.00
             738.00,223.00 759.67,288.00 759.67,288.00
             759.67,288.00 772.00,324.00 772.00,324.00
             772.00,324.00 784.66,283.00 784.66,283.00
             784.66,283.00 803.02,224.00 803.02,224.00
             803.02,224.00 813.00,192.00 813.00,192.00
             813.00,192.00 883.00,192.00 883.00,192.00
             883.00,192.00 859.05,258.00 859.05,258.00
             859.05,258.00 815.95,375.00 815.95,375.00
             815.95,375.00 800.34,417.00 800.34,417.00
             800.34,417.00 781.58,468.00 781.58,468.00
             781.58,468.00 774.49,483.98 774.49,483.98
             774.49,483.98 767.00,485.00 767.00,485.00
             767.00,485.00 702.00,485.00 702.00,485.00
             702.00,485.00 724.20,427.00 724.20,427.00
             724.20,427.00 733.47,401.00 733.47,401.00
             733.47,401.00 727.42,383.00 727.42,383.00
             727.42,383.00 713.05,345.00 713.05,345.00
             713.05,345.00 675.58,245.00 675.58,245.00
             675.58,245.00 656.00,192.00 656.00,192.00 Z
           M 1116.00,192.00
           C 1116.00,192.00 1179.00,192.00 1179.00,192.00
             1179.00,192.00 1186.30,192.99 1186.30,192.99
             1186.30,192.99 1190.02,202.00 1190.02,202.00
             1190.02,202.00 1197.28,225.00 1197.28,225.00
             1197.28,225.00 1219.66,297.00 1219.66,297.00
             1219.66,297.00 1231.00,331.00 1231.00,331.00
             1231.00,331.00 1241.28,295.00 1241.28,295.00
             1241.28,295.00 1263.28,223.00 1263.28,223.00
             1263.28,223.00 1270.00,201.00 1270.00,201.00
             1270.00,201.00 1273.56,193.02 1273.56,193.02
             1273.56,193.02 1281.00,192.00 1281.00,192.00
             1281.00,192.00 1343.00,192.00 1343.00,192.00
             1343.00,192.00 1320.69,254.00 1320.69,254.00
             1320.69,254.00 1284.05,356.00 1284.05,356.00
             1284.05,356.00 1271.42,391.00 1271.42,391.00
             1271.42,391.00 1266.01,404.43 1266.01,404.43
             1266.01,404.43 1258.00,406.00 1258.00,406.00
             1258.00,406.00 1200.00,406.00 1200.00,406.00
             1200.00,406.00 1191.70,404.40 1191.70,404.40
             1191.70,404.40 1186.19,391.00 1186.19,391.00
             1186.19,391.00 1174.00,357.00 1174.00,357.00
             1174.00,357.00 1135.95,250.00 1135.95,250.00
             1135.95,250.00 1122.00,211.00 1122.00,211.00
             1122.00,211.00 1116.00,192.00 1116.00,192.00 Z
           M 308.00,268.00
           C 311.73,266.55 310.99,261.42 311.00,258.00
             311.00,258.00 311.00,238.00 311.00,238.00
             311.01,234.63 310.74,230.19 313.01,227.43
             315.96,223.83 323.39,224.22 325.99,230.09
             327.07,232.52 326.99,235.39 327.00,238.00
             327.00,238.00 327.00,261.00 327.00,261.00
             327.00,263.43 326.80,266.67 328.02,268.82
             331.14,274.28 352.88,282.78 356.57,286.55
             359.12,289.16 359.14,293.52 360.00,297.00
             360.00,297.00 352.00,303.00 352.00,303.00
             347.51,299.87 327.32,289.47 322.00,287.35
             317.71,285.63 311.95,285.71 309.01,281.73
             306.05,277.73 307.20,272.48 308.00,268.00 Z
           M 582.00,272.00
           C 581.90,260.50 579.11,246.60 570.90,238.17
             558.01,224.62 529.44,226.30 516.04,238.17
             505.99,247.30 503.67,259.36 502.00,272.00
             502.00,272.00 582.00,272.00 582.00,272.00 Z
           M 1454.00,234.30
           C 1438.89,237.15 1431.54,245.97 1426.44,260.00
             1423.46,268.18 1421.04,283.28 1421.00,292.00
             1420.89,316.11 1421.10,353.11 1449.00,362.25
             1453.09,363.59 1455.73,363.95 1460.00,364.00
             1460.00,364.00 1466.00,364.00 1466.00,364.00
             1470.64,363.94 1472.62,363.59 1477.00,361.94
             1506.15,350.92 1504.30,313.60 1504.00,288.00
             1503.82,273.10 1498.74,251.27 1486.99,241.33
             1477.82,233.57 1465.41,233.16 1454.00,234.30 Z
           M 1025.00,306.00
           C 1016.24,306.01 1002.87,307.80 994.00,309.13
             988.30,309.99 979.13,312.58 974.00,315.13
             969.37,317.44 964.90,321.43 962.41,326.00
             959.60,331.17 959.94,336.33 960.00,342.00
             960.26,363.04 976.08,365.08 993.00,365.00
             999.21,364.97 1001.16,364.45 1007.00,362.30
             1011.92,360.50 1022.45,354.85 1024.40,349.91
             1025.12,348.10 1025.00,344.99 1025.00,343.00
             1025.00,343.00 1025.00,306.00 1025.00,306.00 Z" />
</svg>
